<svg width="36" height="18" viewBox="0 0 36 18" fill="none" xmlns="http://www.w3.org/2000/svg">
<path d="M2.08001 0H13.8V2.1H2.08001V0ZM1.22637e-05 7.68H16.78V9.8H1.22637e-05V7.68ZM12.2 0H14.82V1.66C14.82 2.59333 14.7933 3.58667 14.74 4.64C14.7 5.68 14.5333 6.89333 14.24 8.28L11.62 8.02C11.9133 6.7 12.08 5.54 12.12 4.54C12.1733 3.52667 12.2 2.56667 12.2 1.66V0ZM13.02 3.64V5.56L1.86001 6.02L1.54001 3.88L13.02 3.64ZM8.34001 10.94C10.34 10.94 11.9133 11.24 13.06 11.84C14.2067 12.44 14.78 13.2867 14.78 14.38C14.78 15.4867 14.2067 16.34 13.06 16.94C11.9133 17.54 10.34 17.84 8.34001 17.84C6.34001 17.84 4.76668 17.54 3.62001 16.94C2.48668 16.34 1.92001 15.4867 1.92001 14.38C1.92001 13.2867 2.48668 12.44 3.62001 11.84C4.76668 11.24 6.34001 10.94 8.34001 10.94ZM8.34001 13C7.51335 13 6.82001 13.0467 6.26001 13.14C5.71335 13.2333 5.30001 13.3867 5.02001 13.6C4.74001 13.8 4.60001 14.06 4.60001 14.38C4.60001 14.7 4.74001 14.9667 5.02001 15.18C5.30001 15.38 5.71335 15.5333 6.26001 15.64C6.82001 15.7333 7.51335 15.78 8.34001 15.78C9.16668 15.78 9.85335 15.7333 10.4 15.64C10.96 15.5333 11.38 15.38 11.66 15.18C11.94 14.9667 12.08 14.7 12.08 14.38C12.08 14.06 11.94 13.8 11.66 13.6C11.38 13.3867 10.96 13.2333 10.4 13.14C9.85335 13.0467 9.16668 13 8.34001 13ZM20.4784 0H32.1985V2.1H20.4784V0ZM18.3984 7.68H35.1785V9.8H18.3984V7.68ZM30.5985 0H33.2185V1.66C33.2185 2.59333 33.1918 3.58667 33.1384 4.64C33.0985 5.68 32.9318 6.89333 32.6385 8.28L30.0185 8.02C30.3118 6.7 30.4784 5.54 30.5185 4.54C30.5718 3.52667 30.5985 2.56667 30.5985 1.66V0ZM31.4185 3.64V5.56L20.2584 6.02L19.9384 3.88L31.4185 3.64ZM26.7385 10.94C28.7385 10.94 30.3118 11.24 31.4585 11.84C32.6051 12.44 33.1785 13.2867 33.1785 14.38C33.1785 15.4867 32.6051 16.34 31.4585 16.94C30.3118 17.54 28.7385 17.84 26.7385 17.84C24.7384 17.84 23.1651 17.54 22.0185 16.94C20.8851 16.34 20.3184 15.4867 20.3184 14.38C20.3184 13.2867 20.8851 12.44 22.0185 11.84C23.1651 11.24 24.7384 10.94 26.7385 10.94ZM26.7385 13C25.9118 13 25.2184 13.0467 24.6585 13.14C24.1118 13.2333 23.6984 13.3867 23.4184 13.6C23.1384 13.8 22.9984 14.06 22.9984 14.38C22.9984 14.7 23.1384 14.9667 23.4184 15.18C23.6984 15.38 24.1118 15.5333 24.6585 15.64C25.2184 15.7333 25.9118 15.78 26.7385 15.78C27.5651 15.78 28.2518 15.7333 28.7984 15.64C29.3585 15.5333 29.7785 15.38 30.0585 15.18C30.3385 14.9667 30.4785 14.7 30.4785 14.38C30.4785 14.06 30.3385 13.8 30.0585 13.6C29.7785 13.3867 29.3585 13.2333 28.7984 13.14C28.2518 13.0467 27.5651 13 26.7385 13Z" fill="black"/>
</svg>
